<?xml version="1.0" encoding="UTF-8" standalone="no"?>
<svg
   version="1.1"
   width="128.0"
   height="128.0"
   id="svg9"
   sodipodi:docname="htmlcss.svg"
   inkscape:version="1.4 (e7c3feb1, 2024-10-09)"
   xmlns:inkscape="http://www.inkscape.org/namespaces/inkscape"
   xmlns:sodipodi="http://sodipodi.sourceforge.net/DTD/sodipodi-0.dtd"
   xmlns="http://www.w3.org/2000/svg"
   xmlns:svg="http://www.w3.org/2000/svg"
   xmlns:rdf="http://www.w3.org/1999/02/22-rdf-syntax-ns#"
   xmlns:dc="http://purl.org/dc/elements/1.1/">
  <defs
     id="defs9" />
  <sodipodi:namedview
     id="namedview9"
     pagecolor="#ffffff"
     bordercolor="#666666"
     borderopacity="1.0"
     inkscape:showpageshadow="2"
     inkscape:pageopacity="0.0"
     inkscape:pagecheckerboard="0"
     inkscape:deskcolor="#d1d1d1"
     inkscape:zoom="3.2900184"
     inkscape:cx="54.406991"
     inkscape:cy="67.628801"
     inkscape:window-width="1104"
     inkscape:window-height="724"
     inkscape:window-x="0"
     inkscape:window-y="38"
     inkscape:window-maximized="0"
     inkscape:current-layer="svg9" />
  <metadata
     id="metadata1">
    <rdf:RDF>
      <rdf:Description
         rdf:about="http://likethought.com/opacity/">
        <dc:title>New Image</dc:title>
        <dc:creator>Michael Sweet</dc:creator>
        <dc:rights>Copyright 2017 Michael Sweet</dc:rights>
        <dc:description />
        <dc:format>image/svg+xml</dc:format>
        <dc:language>en</dc:language>
      </rdf:Description>
    </rdf:RDF>
  </metadata>
  <g
     id="g7">
    <title
       id="title1">Base</title>
    <rect
       x="8.0"
       y="8.0"
       width="112.0"
       height="112.0"
       fill="rgb(0%, 0%, 0%)"
       stroke="none"
       id="rect1" />
    <rect
       x="48.0"
       y="0.0"
       width="40.0"
       height="8.0"
       fill="rgb(0%, 0%, 0%)"
       stroke="none"
       id="rect2" />
    <rect
       x="88.0"
       y="120.0"
       width="32.0"
       height="8.0"
       fill="rgb(0%, 0%, 0%)"
       stroke="none"
       id="rect3" />
    <rect
       x="8.0"
       y="120.0"
       width="40.0"
       height="8.0"
       fill="rgb(0%, 0%, 0%)"
       stroke="none"
       id="rect4" />
    <rect
       x="0.0"
       y="48.0"
       width="8.0"
       height="40.0"
       fill="rgb(0%, 0%, 0%)"
       stroke="none"
       id="rect5" />
    <rect
       x="120.0"
       y="88.0"
       width="8.0"
       height="40.0"
       fill="rgb(0%, 0%, 0%)"
       stroke="none"
       id="rect6" />
    <rect
       x="120.0"
       y="8.0"
       width="8.0"
       height="40.0"
       fill="rgb(0%, 0%, 0%)"
       stroke="none"
       id="rect7" />
  </g>
  <rect
     x="12"
     y="26"
     width="104"
     height="46"
     fill="#434343"
     stroke="none"
     id="rect8" />
  <path
     style="font-weight:bold;font-size:41.5748px;font-family:'Open Sans';-inkscape-font-specification:'Open Sans, Bold';text-anchor:middle;fill:#ffffff"
     d="M 38.756807,64.145966 H 32.565248 V 50.889938 q 0,-4.912647 -3.654035,-4.912647 -2.598425,0 -3.755536,1.766117 -1.157111,1.766117 -1.157111,5.724655 v 10.677903 h -6.19156 V 32.558863 h 6.19156 v 6.435161 q 0,0.751108 -0.142102,3.532234 l -0.142101,1.827018 h 0.324803 q 2.07062,-3.329232 6.577263,-3.329232 3.999138,0 6.069758,2.151821 2.07062,2.15182 2.07062,6.171259 z M 54.69246,59.619022 q 1.624016,0 3.897638,-0.710507 v 4.608145 q -2.314222,1.035309 -5.684055,1.035309 -3.714935,0 -5.420152,-1.867617 -1.684916,-1.887919 -1.684916,-5.643455 V 46.099093 h -2.963828 v -2.618726 l 3.410432,-2.070619 1.786418,-4.790846 h 3.958537 v 4.831446 h 6.353961 v 4.648745 h -6.353961 v 10.941804 q 0,1.319513 0.730807,1.948819 0.751108,0.629306 1.969119,0.629306 z m 28.805975,4.526944 h -6.19156 V 50.889938 q 0,-2.456323 -0.832308,-3.674335 -0.812007,-1.238312 -2.578124,-1.238312 -2.375123,0 -3.451033,1.745817 -1.075911,1.745817 -1.075911,5.744955 V 64.145966 H 63.17794 V 41.450348 h 4.729945 l 0.832308,2.902928 h 0.345103 q 0.913509,-1.563115 2.639026,-2.436024 1.725516,-0.893208 3.958538,-0.893208 5.095349,0 6.902066,3.329232 h 0.548105 q 0.913509,-1.583415 2.679626,-2.456324 1.786417,-0.872908 4.019438,-0.872908 3.857037,0 5.826156,1.989419 1.989419,1.969119 1.989419,6.333661 V 64.145966 H 91.435811 V 50.889938 q 0,-2.456323 -0.832308,-3.674335 -0.812008,-1.238312 -2.578125,-1.238312 -2.273622,0 -3.410433,1.624016 -1.11651,1.624016 -1.11651,5.156249 z m 26.694755,0 h -6.19156 V 32.558863 h 6.19156 z"
     id="text8"
     aria-label="html" />
  <path
     style="font-weight:bold;font-size:41.5748px;font-family:'Open Sans';-inkscape-font-specification:'Open Sans, Bold';text-anchor:middle;fill:#ff2600"
     d="m 44.968701,103.07171 q -10.596701,0 -10.596701,-11.632007 0,-5.785556 2.882627,-8.830585 2.882628,-3.065329 8.262179,-3.065329 3.938238,0 7.064468,1.542815 l -1.827017,4.790845 q -1.461614,-0.588705 -2.720226,-0.954109 -1.258613,-0.385703 -2.517225,-0.385703 -4.831446,0 -4.831446,6.861465 0,6.658464 4.831446,6.658464 1.786418,0 3.308932,-0.466904 1.522515,-0.487205 3.045029,-1.502215 v 5.298353 q -1.502214,0.95411 -3.045029,1.31951 -1.522514,0.3654 -3.857037,0.3654 z m 27.993968,-7.145664 q 0,3.491633 -2.436023,5.318654 -2.415724,1.82701 -7.24717,1.82701 -2.476624,0 -4.22244,-0.3451 -1.745817,-0.3248 -3.268332,-0.97441 v -5.115647 q 1.725517,0.812007 3.877337,1.360113 2.172121,0.548105 3.816437,0.548105 3.369832,0 3.369832,-1.948819 0,-0.730807 -0.446604,-1.177411 -0.446604,-0.466905 -1.542815,-1.03531 -1.09621,-0.588706 -2.923228,-1.360113 -2.618725,-1.096211 -3.857037,-2.030019 -1.218011,-0.933809 -1.786417,-2.131521 -0.548105,-1.218012 -0.548105,-2.984129 0,-3.024729 2.334522,-4.669044 2.354823,-1.664616 6.658464,-1.664616 4.100639,0 7.977977,1.786417 l -1.867618,4.466043 q -1.705217,-0.730807 -3.187131,-1.197712 -1.481914,-0.466904 -3.024729,-0.466904 -2.740526,0 -2.740526,1.481914 0,0.832308 0.872908,1.441314 0.893209,0.609006 3.877337,1.806717 2.659326,1.07591 3.897638,2.009719 1.238312,0.933809 1.827017,2.151821 0.588706,1.218012 0.588706,2.902928 z m 20.665598,0 q 0,3.491633 -2.436024,5.318654 -2.415723,1.82701 -7.247169,1.82701 -2.476624,0 -4.22244,-0.3451 -1.745817,-0.3248 -3.268332,-0.97441 v -5.115647 q 1.725517,0.812007 3.877337,1.360113 2.172121,0.548105 3.816437,0.548105 3.369832,0 3.369832,-1.948819 0,-0.730807 -0.446604,-1.177411 -0.446604,-0.466905 -1.542815,-1.03531 -1.09621,-0.588706 -2.923228,-1.360113 -2.618725,-1.096211 -3.857037,-2.030019 -1.218011,-0.933809 -1.786417,-2.131521 -0.548105,-1.218012 -0.548105,-2.984129 0,-3.024729 2.334522,-4.669044 2.354823,-1.664616 6.658464,-1.664616 4.100639,0 7.977977,1.786417 l -1.867618,4.466043 q -1.705217,-0.730807 -3.187131,-1.197712 -1.481914,-0.466904 -3.024729,-0.466904 -2.740526,0 -2.740526,1.481914 0,0.832308 0.872908,1.441314 0.893209,0.609006 3.877337,1.806717 2.659326,1.07591 3.897638,2.009719 1.238312,0.933809 1.827017,2.151821 0.588706,1.218012 0.588706,2.902928 z"
     id="text9"
     aria-label="css" />
</svg>
