<svg xmlns="http://www.w3.org/2000/svg" xmlns:xlink="http://www.w3.org/1999/xlink" id="svg-root" width="480" height="360"><SVGTestCase xmlns="http://www.w3.org/2000/02/svg/testsuite/description/"><OperatorScript><Paragraph>Test that the viewer has the basic capability to handle the &apos;path&apos; element and its data (d) attribute in combination with the cubic Bezier curveto commands, C, c, S, s (plus Mm and Zz).</Paragraph><Paragraph>There are 8 subtests, each composed from the cubic Bezier path commands per the label by the subtest. On-curve control points (i.e., the curve position) are marked by small blue squares. Subtests are filled, or stroked, or both, using simple style properties and colors.</Paragraph><Paragraph>The rendered picture should match the reference image exactly, except for possible variations in the labelling text (per CSS2 rules).</Paragraph><Paragraph>The test uses the &apos;rect&apos; element, as well as basic fill (solid primary colors), stroke (primary color 1-pixel lines), font-family (Helvetica) and font-size properties.</Paragraph></OperatorScript></SVGTestCase><title id="test-title">paths-data-01-f</title><desc id="test-desc">Test that the viewer has the basic capability to handle the &apos;path&apos; element and data (d) attribute in combination with the cubic Bezier curveto, both regular and shorthand/smooth forms - C, c, S, s (along with Mm and Zz).</desc><g id="test-body-content"><text x="100" y="14" font-family="Helvetica" font-size="12">Cubic bezier curves drawn with commands:</text><path id="X_curve_MCSmcs" fill="red" stroke="#00C000" d="M 210 130 C 145 130 110 80 110 80 S 75 25 10 25 m 0 105 c 65 0 100 -50 100 -50 s 35 -55 100 -55"/><rect width="4" height="4" x="208" y="128" fill="#4A83FF" stroke="none"/><rect width="4" height="4" x="108" y="78" fill="#4A83FF" stroke="none"/><rect width="4" height="4" x="8" y="23" fill="#4A83FF" stroke="none"/><rect width="4" height="4" x="8" y="128" fill="#4A83FF" stroke="none"/><rect width="4" height="4" x="108" y="78" fill="#4A83FF" stroke="none"/><rect width="4" height="4" x="208" y="23" fill="#4A83FF" stroke="none"/><text x="5" y="82" font-family="Helvetica" font-size="12">M, C, S, m, c, s</text><path id="Infinity_McccCz" fill="none" stroke="#000" d="M 240 90 c 0 30 7 50 50 0 c 43 -50 50 -30 50 0 c 0 83 -68 -34 -90 -30 C 240 60 240 90 240 90 z"/><rect width="4" height="4" x="238" y="88" fill="#4A83FF" stroke="none"/><rect width="4" height="4" x="288" y="88" fill="#4A83FF" stroke="none"/><rect width="4" height="4" x="338" y="88" fill="#4A83FF" stroke="none"/><rect width="4" height="4" x="248" y="58" fill="#4A83FF" stroke="none"/><text x="253" y="50" font-family="Helvetica" font-size="12">M, c, c, c, C, z</text><path id="Line_MCZ" fill="none" stroke="#000" d="M80 170 C100 170 160 170 180 170Z"/><rect width="4" height="4" x="78" y="168" fill="#4A83FF" stroke="none"/><rect width="4" height="4" x="178" y="168" fill="#4A83FF" stroke="none"/><text x="110" y="190" font-family="Helvetica" font-size="12">M, C, Z</text><path id="Inv_V_MCcZ" fill="#00C000" stroke="none" d="M5 260 C40 260 60 175 55 160 c -5 15 15 100 50 100Z"/><rect width="4" height="4" x="3" y="258" fill="#4A83FF" stroke="none"/><rect width="4" height="4" x="53" y="158" fill="#4A83FF" stroke="none"/><rect width="4" height="4" x="103" y="258" fill="#4A83FF" stroke="none"/><text x="85" y="220" font-family="Helvetica" font-size="12">M, C, c, Z</text><path id="Rem_Rib_mcs" fill="none" stroke="#000" d="m 200 260 c 50 -40 50 -100 25 -100 s -25 60 25 100"/><rect width="4" height="4" x="198" y="258" fill="#4A83FF" stroke="none"/><rect width="4" height="4" x="223" y="158" fill="#4A83FF" stroke="none"/><rect width="4" height="4" x="248" y="258" fill="#4A83FF" stroke="none"/><text x="165" y="210" font-family="Helvetica" font-size="12">m, c, s</text><path id="Arc_MC" fill="#00F" stroke="#000" d="M 360 100 C 420 90 460 140 450 190"/><rect width="4" height="4" x="358" y="98" fill="#4A83FF" stroke="none"/><rect width="4" height="4" x="448" y="188" fill="#4A83FF" stroke="none"/><text x="360" y="150" font-family="Helvetica" font-size="12">M, C</text><path id="Circle_Mcssz" fill="#FF0" stroke="#000" d="M360 210 c 0 20 -16 36 -36 36 s -36 -16 -36 -36 s 16 -36 36 -36 s 36 16 36 36 z"/><rect width="4" height="4" x="358" y="208" fill="#4A83FF" stroke="none"/><rect width="4" height="4" x="322" y="244" fill="#4A83FF" stroke="none"/><rect width="4" height="4" x="286" y="208" fill="#4A83FF" stroke="none"/><rect width="4" height="4" x="322" y="172" fill="#4A83FF" stroke="none"/><text x="290" y="265" font-family="Helvetica" font-size="12">M, c, s, s, s, z</text><path id="Horseshoe_Mcs" fill="#F0F0F0" stroke="red" d="m 360 325 c -40 -60 95 -100 80 0 z"/><rect width="4" height="4" x="358" y="323" fill="#4A83FF" stroke="none"/><rect width="4" height="4" x="438" y="323" fill="#4A83FF" stroke="none"/><text x="380" y="340" font-family="Helvetica" font-size="12">m, c, z</text></g><g id="test-legend" fill="#000" font-family="Helvetica" font-size="10"><rect width="275" height="50" x="10" y="300" fill="none" stroke="#000"/><path fill="none" stroke="#000" d="M10 315 h275 M205 315 v35 M10 336 h195 M205 332 h80"/><text x="25" y="311">Scalable Vector Graphics (SVG) v1.1 Conformance Suite</text><a xlink:href="copyright-documents-19990405.html"><text x="12" y="347" fill="#00f">Copyright 2002 W3C. All Rights Reserved.</text></a><text x="35" y="330" font-size="12">paths-data-01-f</text><text x="210" y="327" font-size="10">$Revision: 1.1 $</text><text x="210" y="345" font-size="10">Release 1.0</text><rect id="test-frame" width="478" height="358" x="1" y="1" fill="none" stroke="#000"/></g></svg>