<svg xmlns="http://www.w3.org/2000/svg" xmlns:xlink="http://www.w3.org/1999/xlink" id="svg-root" width="480" height="360"><SVGTestCase xmlns="http://www.w3.org/2000/02/svg/testsuite/description/"><OperatorScript><Paragraph>Verify the basic capability to handle the &apos;path&apos; element, and its data attribute (d) in combination with the straight-line path commands. Four pairs of figures should be displayed in the four quadrants. The shapes in each pair are identical, with one stroked and one filled. Two pairs of concentric equilateral triangles are drawn using respectively M,L,Z and m,l,z. The fill-mode default of &quot;even-odd&quot; means that the inner triangle is hollow. Two pairs of staircase figures are drawn using respectively M,H,V,Z and m,h,v,z.</Paragraph><Paragraph>The rendered picture should match the reference image exactly, except for possible variations in the labelling text (per CSS2 rules).</Paragraph><Paragraph>The test uses the &apos;rect&apos; element, as well as basic fill (solid primary colors), stroke (black 1-pixel lines), font-family (Helvetica) and font-size properties.</Paragraph></OperatorScript></SVGTestCase><title id="test-title">paths-data-04-f</title><desc id="test-desc">Test that viewer has the basic capability to handle the &lt;path&gt; element and data (d) attribute in combination with the moveto, lineto, and closepath commands - M, L, Z, m, l, and z.</desc><g id="test-body-content"><text x="160" y="14" font-family="Helvetica" font-size="12">Lines drawn with commands:</text><text x="88" y="30" font-family="Helvetica" font-size="12">M, L, L, L, Z,</text><text x="98" y="46" font-family="Helvetica" font-size="12">subpath</text><text x="88" y="61" font-family="Helvetica" font-size="12">M, L, L, L, Z</text><path id="Triangle_stroke_MLZ" fill="none" stroke="#000" d="M 62.00000 56.00000 L 113.96152 146.00000 L 10.03848 146.00000 L 62.00000 56.00000 Z M 62.00000 71.00000 L 100.97114 138.50000 L 23.02886 138.50000 L 62.00000 71.00000 Z"/><rect width="4" height="4" x="60" y="54" fill="#00C000" stroke="none"/><rect width="4" height="4" x="111.962" y="144" fill="#00C000" stroke="none"/><rect width="4" height="4" x="8.038" y="144" fill="#00C000" stroke="none"/><rect width="4" height="4" x="60" y="69" fill="#00C000" stroke="none"/><rect width="4" height="4" x="98.971" y="136.5" fill="#00C000" stroke="none"/><rect width="4" height="4" x="21.029" y="136.5" fill="#00C000" stroke="none"/><text x="42" y="162" font-family="Helvetica" font-size="12">stroked</text><path id="Triangle_fill_MLZ" fill="red" fill-rule="evenodd" stroke="none" d="M 177.00000 56.00000 L 228.96152 146.00000 L 125.03848 146.00000 L 177.00000 56.00000 Z M 177.00000 71.00000 L 215.97114 138.50000 L 138.02886 138.50000 L 177.00000 71.00000 Z"/><rect width="4" height="4" x="175" y="54" fill="#00C000" stroke="none"/><rect width="4" height="4" x="226.962" y="144" fill="#00C000" stroke="none"/><rect width="4" height="4" x="123.038" y="144" fill="#00C000" stroke="none"/><rect width="4" height="4" x="175" y="69" fill="#00C000" stroke="none"/><rect width="4" height="4" x="213.971" y="136.5" fill="#00C000" stroke="none"/><rect width="4" height="4" x="136.029" y="136.5" fill="#00C000" stroke="none"/><text x="162" y="162" font-family="Helvetica" font-size="12">filled</text><text x="96" y="180" font-family="Helvetica" font-size="12">m, l, l, l, z,</text><text x="100" y="194" font-family="Helvetica" font-size="12">subpath</text><text x="97" y="208" font-family="Helvetica" font-size="12">m, l, l, l, z</text><path id="Triangle_stroke_mlz" fill="none" stroke="#000" d="m 62.00000 190.00000 l 51.96152 90.00000 l -103.92304 0.00000 l 51.96152 -90.00000 z m 0.00000 15.00000 l 38.97114 67.50000 l -77.91228 0.00000 l 38.97114 -67.50000 z"/><rect width="4" height="4" x="60" y="188" fill="red" stroke="none"/><rect width="4" height="4" x="111.962" y="278" fill="red" stroke="none"/><rect width="4" height="4" x="8.038" y="278" fill="red" stroke="none"/><rect width="4" height="4" x="60" y="203" fill="red" stroke="none"/><rect width="4" height="4" x="98.971" y="270.5" fill="red" stroke="none"/><rect width="4" height="4" x="21.029" y="270.5" fill="red" stroke="none"/><path id="Triangle_fill_mlz" fill="#00C000" fill-rule="evenodd" stroke="none" d="m 177.00000 190.00000 l 51.96152 90.00000 l -103.92304 0.00000 l 51.96152 -90.00000 z m 0.00000 15.00000 l 38.97114 67.50000 l -77.91228 0.00000 l 38.97114 -67.50000 z"/><rect width="4" height="4" x="175" y="188" fill="red" stroke="none"/><rect width="4" height="4" x="226.962" y="278" fill="red" stroke="none"/><rect width="4" height="4" x="123.038" y="278" fill="red" stroke="none"/><rect width="4" height="4" x="175" y="203" fill="red" stroke="none"/><rect width="4" height="4" x="213.971" y="270.5" fill="red" stroke="none"/><rect width="4" height="4" x="136.029" y="270.5" fill="red" stroke="none"/><text x="288" y="30" font-family="Helvetica" font-size="12">M, H, V, H,</text><text x="288" y="46" font-family="Helvetica" font-size="12">V. H, V, H,</text><text x="304" y="62" font-family="Helvetica" font-size="12">V, Z</text><path id="Stairs_stroke_MHVZ" fill="none" stroke="#000" d="M 240.00000 56.00000 H 270.00000 V 86.00000 H 300.00000 V 116.00000 H 330.00000 V 146.00000 H 240.00000 V 56.00000 Z"/><rect width="4" height="4" x="238" y="54" fill="#FF0" stroke="none"/><rect width="4" height="4" x="268" y="54" fill="#FF0" stroke="none"/><rect width="4" height="4" x="268" y="84" fill="#FF0" stroke="none"/><rect width="4" height="4" x="298" y="84" fill="#FF0" stroke="none"/><rect width="4" height="4" x="298" y="114" fill="#FF0" stroke="none"/><rect width="4" height="4" x="328" y="114" fill="#FF0" stroke="none"/><rect width="4" height="4" x="328" y="144" fill="#FF0" stroke="none"/><rect width="4" height="4" x="238" y="144" fill="#FF0" stroke="none"/><path id="Stairs_fill_MHVZ" fill="#00F" stroke="none" d="M 350.00000 56.00000 H 380.00000 V 86.00000 H 410.00000 V 116.00000 H 440.00000 V 146.00000 H 350.00000 V 56.00000 Z"/><rect width="4" height="4" x="348" y="54" fill="#FF0" stroke="none"/><rect width="4" height="4" x="378" y="54" fill="#FF0" stroke="none"/><rect width="4" height="4" x="378" y="84" fill="#FF0" stroke="none"/><rect width="4" height="4" x="408" y="84" fill="#FF0" stroke="none"/><rect width="4" height="4" x="408" y="114" fill="#FF0" stroke="none"/><rect width="4" height="4" x="438" y="114" fill="#FF0" stroke="none"/><rect width="4" height="4" x="438" y="144" fill="#FF0" stroke="none"/><rect width="4" height="4" x="348" y="144" fill="#FF0" stroke="none"/><text x="288" y="180" font-family="Helvetica" font-size="12">m, h, v, h</text><text x="288" y="194" font-family="Helvetica" font-size="12">v, h, v, h</text><text x="304" y="208" font-family="Helvetica" font-size="12">v, z</text><path id="Stairs_stroke_mhvz" fill="none" stroke="#000" d="m 240.00000 190.00000 h 30.00000 v 30.00000 h 30.00000 v 30.00000 h 30.00000 v 30.00000 h -90.00000 v -90.00000 z"/><rect width="4" height="4" x="238" y="188" fill="#00F" stroke="none"/><rect width="4" height="4" x="268" y="188" fill="#00F" stroke="none"/><rect width="4" height="4" x="268" y="218" fill="#00F" stroke="none"/><rect width="4" height="4" x="298" y="218" fill="#00F" stroke="none"/><rect width="4" height="4" x="298" y="248" fill="#00F" stroke="none"/><rect width="4" height="4" x="328" y="248" fill="#00F" stroke="none"/><rect width="4" height="4" x="328" y="278" fill="#00F" stroke="none"/><rect width="4" height="4" x="238" y="278" fill="#00F" stroke="none"/><path id="Stairs_fill_mhvz" fill="#FF0" stroke="none" d="m 350.00000 190.00000 h 30.00000 v 30.00000 h 30.00000 v 30.00000 h 30.00000 v 30.00000 h -90.00000 v -90.00000 z"/><rect width="4" height="4" x="348" y="188" fill="#00F" stroke="none"/><rect width="4" height="4" x="378" y="188" fill="#00F" stroke="none"/><rect width="4" height="4" x="378" y="218" fill="#00F" stroke="none"/><rect width="4" height="4" x="408" y="218" fill="#00F" stroke="none"/><rect width="4" height="4" x="408" y="248" fill="#00F" stroke="none"/><rect width="4" height="4" x="438" y="248" fill="#00F" stroke="none"/><rect width="4" height="4" x="438" y="278" fill="#00F" stroke="none"/><rect width="4" height="4" x="348" y="278" fill="#00F" stroke="none"/></g><g id="test-legend" fill="#000" font-family="Helvetica" font-size="10"><rect width="275" height="50" x="10" y="300" fill="none" stroke="#000"/><path fill="none" stroke="#000" d="M10 315 h275 M205 315 v35 M10 336 h195 M205 332 h80"/><text x="25" y="311">Scalable Vector Graphics (SVG) v1.1 Conformance Suite</text><a xlink:href="copyright-documents-19990405.html"><text x="12" y="347" fill="#00f">Copyright 2002 W3C. All Rights Reserved.</text></a><text x="35" y="330" font-size="12">paths-data-04-f</text><text x="210" y="327" font-size="10">$Revision: 1.1 $</text><text x="210" y="345" font-size="10">Release 3.0</text><rect id="test-frame" width="478" height="358" x="1" y="1" fill="none" stroke="#000"/></g></svg>