<svg xmlns="http://www.w3.org/2000/svg" xmlns:xlink="http://www.w3.org/1999/xlink" id="svg-root" width="480" height="360"><SVGTestCase xmlns="http://www.w3.org/2000/02/svg/testsuite/description/"><OperatorScript><Paragraph>Test that the viewer has the basic capability to handle the &apos;path&apos; element and its data (d) attribute in combination with the elliptical arc curveto commands, A, a (plus Mm and Zz).</Paragraph><Paragraph>There are 6 subtests, each composed from the elliptical arc path commands per the label by the subtest. The curve positions are marked by small colored squares. Subtests are filled, or stroked, or both, using simple style properties and colors.</Paragraph><Paragraph>The rendered picture should match the reference image exactly, except for possible variations in the labelling text (per CSS2 rules).</Paragraph><Paragraph>The test uses the &apos;rect&apos; element, as well as basic fill (solid primary colors), stroke (primary color wide and 1-pixel lines), font-family (Helvetica) and font-size properties.</Paragraph></OperatorScript></SVGTestCase><title id="test-title">paths-data-03-f.svg</title><desc id="test-desc">Test that the viewer has the basic capability to handle the &apos;path&apos; element and data (d) attribute in combination with the elliptical Arc curveto commands - A, a (along with Mm and Zz).</desc><g id="test-body-content"><text x="120" y="14" font-family="Helvetica" font-size="12">Elliptical arc curves drawn with commands:</text><path id="Arc_MAZ" fill="none" stroke="red" stroke-width="10" d="M 25 70 A 40 40 0 1 0 25 69 Z"/><text x="48" y="70" font-family="Helvetica" font-size="12">M, A, Z</text><rect width="4" height="4" x="23" y="68" fill="#00C000" stroke="none"/><rect width="4" height="4" x="23" y="67" fill="#00C000" stroke="none"/><path id="Arc_fill_maz" fill="#0F0" stroke="#00F" d="m 150 100 a 50 40 0 1 0 25 -70 z"/><text x="124" y="45" font-family="Helvetica" font-size="12">m, a, z</text><rect width="4" height="4" x="148" y="98" fill="#CF0000" stroke="none"/><rect width="4" height="4" x="173" y="28" fill="#CF0000" stroke="none"/><path id="Arc_Ma" fill="none" stroke="#000" d="M 350 245 a 40 40 0 1 0 80 60"/><text x="390" y="300" font-family="Helvetica" font-size="12">M, a</text><rect width="4" height="4" x="348" y="243" fill="#00F" stroke="none"/><rect width="4" height="4" x="428" y="303" fill="#00F" stroke="none"/><path id="Tri_MAaaz" fill="#C0C000" fill-rule="evenodd" stroke="none" d="M 270 30 A 50 50 0 1 0 345 30 a 50 50 0 1 0 50 0 a 50 50 0 1 0 25 0 z"/><text x="280" y="135" font-family="Helvetica" font-size="12">M, A, a, a, z</text><rect width="4" height="4" x="268" y="28" fill="#00F" stroke="none"/><rect width="4" height="4" x="343" y="28" fill="#00F" stroke="none"/><rect width="4" height="4" x="393" y="28" fill="#00F" stroke="none"/><rect width="4" height="4" x="418" y="28" fill="#00F" stroke="none"/><path id="Arc_MaZmAzmaz" fill="#CF0000" stroke="#000" stroke-width="3" d="M 30 150 a 40 40 0 0 1 65 50 Z m 30 30 A 20 20 0 0 0 125 230 Z m 40 24 a 20 20 0 0 1 65 50 z"/><text x="25" y="270" font-family="Helvetica" font-size="12">M, a, Z, m, A, Z, m, a, z</text><rect width="4" height="4" x="28" y="148" fill="#00F" stroke="none"/><rect width="4" height="4" x="93" y="198" fill="#00F" stroke="none"/><rect width="4" height="4" x="58" y="178" fill="#00F" stroke="none"/><rect width="4" height="4" x="123" y="228" fill="#00F" stroke="none"/><rect width="4" height="4" x="98" y="202" fill="#00F" stroke="none"/><rect width="4" height="4" x="163" y="252" fill="#00F" stroke="none"/><path id="Sin_MAAAAA" fill="none" stroke="red" d="M 215 190 A 40 200 10 0 0 265 190 A 40 200 20 0 1 315 190 A 40 200 30 0 0 365 190 A 40 200 40 0 1 415 190 A 40 200 50 0 0 465 190"/><text x="215" y="246" font-family="Helvetica" font-size="12">M, A, A, A, A</text><rect width="4" height="4" x="213" y="188" fill="#00F" stroke="none"/><rect width="4" height="4" x="263" y="188" fill="#00F" stroke="none"/><rect width="4" height="4" x="313" y="188" fill="#00F" stroke="none"/><rect width="4" height="4" x="363" y="188" fill="#00F" stroke="none"/><rect width="4" height="4" x="413" y="188" fill="#00F" stroke="none"/><rect width="4" height="4" x="463" y="188" fill="#00F" stroke="none"/></g><g id="test-legend" fill="#000" font-family="Helvetica" font-size="10"><rect width="275" height="50" x="10" y="300" fill="none" stroke="#000"/><path fill="none" stroke="#000" d="M10 315 h275 M205 315 v35 M10 336 h195 M205 332 h80"/><text x="25" y="311">Scalable Vector Graphics (SVG) v1.1 Conformance Suite</text><a xlink:href="copyright-documents-19990405.html"><text x="12" y="347" fill="#00f">Copyright 2002 W3C. All Rights Reserved.</text></a><text x="35" y="330" font-size="12">paths-data-03-f</text><text x="210" y="327" font-size="10">$Revision: 1.1 $</text><text x="210" y="345" font-size="10">Release 1.0</text><rect id="test-frame" width="478" height="358" x="1" y="1" fill="none" stroke="#000"/></g></svg>