<svg xmlns="http://www.w3.org/2000/svg" xmlns:xlink="http://www.w3.org/1999/xlink" id="svg-root" width="160" height="120"><title id="test-title">shapes-rect-01-b</title><desc id="test-desc">Test that viewer has the basic capability to render the &apos;ellipse&apos;element</desc><g id="test-body-content"><ellipse id="default" cx="24" cy="22" rx="14" ry="9"/><ellipse id="nofill" cx="60" cy="22" fill="none" stroke="#066" rx="14" ry="9"/><text x="12" y="42" font-size="10">default</text><ellipse id="nostroke" cx="24" cy="56" stroke="none" rx="14" ry="9"/><ellipse id="strokeNfill" cx="60" cy="56" fill="#f90" stroke="#069" stroke-width="4" rx="14" ry="9"/><text x="12" y="76" font-size="10">filled</text><ellipse id="rxNyx" cx="102" cy="20" rx="12" ry="12"/><ellipse id="nofill" cx="136" cy="20" fill="none" stroke="#066" rx="12" ry="12"/><text x="88" y="42" font-size="10">&apos;rx&apos;=&apos;ry&apos;</text><ellipse id="allattr" cx="120" cy="56" fill="#f90" stroke="#069" stroke-width="4" rx="30" ry="9"/><text x="88" y="76" font-size="10">all attributes</text></g><rect id="slideframe" width="158" height="118" x="1" y="1" fill="none" stroke="#000" stroke-width="1"/><g id="test-legend" fill="#000" font-size="10"><rect width="154" height="36" x="3" y="81" fill="none" stroke="#000"/><text x="8" y="91">SVG v1.1 Conformance Suite</text><rect width="154" height="12" x="3" y="93" fill="none" stroke="#000"/><text x="8" y="103" font-size="9">shapes-ellipse-01-b</text><line x1="90" x2="90" y1="93" y2="117" stroke="#000"/><text x="91" y="103" font-size="9">$Revision: 1.1 $</text><a xlink:href="copyright-documents-19990405.html"><text x="20" y="115" fill="#00f">©2002 W3C</text></a><text x="92" y="115" font-size="9">Release 1.0</text></g></svg>